<svg width="174" height="36" viewBox="0 0 174 36" fill="none" xmlns="http://www.w3.org/2000/svg">
<path d="M45.683 28.1854C44.2078 28.1854 43.0184 27.7258 42.1147 26.8067C41.2187 25.8876 40.7708 24.6016 40.7708 22.9487L40.7708 13.5412C40.7708 11.564 41.1608 10.0501 41.9409 8.9997C42.7287 7.94927 44.007 7.42406 45.7757 7.42406C46.7412 7.42406 47.5985 7.60171 48.3477 7.957C49.1046 8.31229 49.6994 8.84522 50.1319 9.5558C50.5644 10.2587 50.7807 11.1469 50.7807 12.2205L50.7807 15.7425H46.7257L46.7257 12.7302C46.7257 12.1201 46.6485 11.7107 46.494 11.5022C46.3396 11.2859 46.1001 11.1778 45.7757 11.1778C45.3973 11.1778 45.1424 11.3168 45.0111 11.5949C44.8798 11.8652 44.8141 12.2282 44.8141 12.6839L44.8141 22.8908C44.8141 23.4546 44.8952 23.8524 45.0574 24.0841C45.2273 24.3158 45.4668 24.4317 45.7757 24.4317C46.1233 24.4317 46.3666 24.2888 46.5056 24.003C46.6524 23.7172 46.7257 23.3465 46.7257 22.8908L46.7257 19.2182H50.827L50.827 23.0761C50.827 24.868 50.3752 26.1695 49.4715 26.9805C48.5678 27.7837 47.305 28.1854 45.683 28.1854ZM55.2875 28.1854C54.322 28.1854 53.5844 27.9614 53.0746 27.5134C52.5726 27.0654 52.2289 26.4514 52.0435 25.6713C51.8581 24.8912 51.7655 24.0068 51.7655 23.0182C51.7655 21.9601 51.8697 21.095 52.0783 20.4231C52.2868 19.7434 52.6421 19.1873 53.1441 18.7547C53.6539 18.3222 54.3529 17.9553 55.2411 17.6541L57.8131 16.7736V14.9894C57.8131 14.0549 57.508 13.5876 56.8979 13.5876C56.3418 13.5876 56.0637 13.966 56.0637 14.723V15.7657H52.0319C52.0242 15.7039 52.0203 15.6266 52.0203 15.5339C52.0203 15.4335 52.0203 15.3215 52.0203 15.198C52.0203 13.4679 52.4258 12.2437 53.2368 11.5253C54.0555 10.7993 55.3493 10.4363 57.118 10.4363C58.0448 10.4363 58.8751 10.6024 59.6089 10.9345C60.3426 11.2589 60.9219 11.7416 61.3467 12.3827C61.7792 13.0237 61.9955 13.8154 61.9955 14.7577L61.9955 28H57.871L57.871 25.9378C57.6702 26.6638 57.3381 27.2199 56.8747 27.6061C56.4113 27.9923 55.8822 28.1854 55.2875 28.1854ZM56.921 24.9646C57.2609 24.9646 57.4926 24.8217 57.6162 24.5359C57.7397 24.2501 57.8015 23.9412 57.8015 23.6091L57.8015 18.7663C57.23 18.998 56.7859 19.2915 56.4692 19.6468C56.1525 19.9944 55.9942 20.508 55.9942 21.1877L55.9942 23.4237C55.9942 24.451 56.3031 24.9646 56.921 24.9646ZM63.5943 28L63.5943 10.6217H67.8114V12.5565C68.0123 11.8845 68.3676 11.3593 68.8773 10.9808C69.3871 10.6024 70.0281 10.4131 70.8005 10.4131L70.8005 13.8772C70.4607 13.8772 70.0552 13.9158 69.584 13.9931C69.1129 14.0626 68.6997 14.163 68.3444 14.2943C67.9891 14.4179 67.8114 14.5569 67.8114 14.7114L67.8114 28H63.5943ZM78.7598 28.1854C78.0801 28.1854 77.5279 28.0193 77.1031 27.6872C76.6783 27.3473 76.3384 26.8337 76.0835 26.1463L76.0835 28H71.8664L71.8664 7.60943H76.0835V12.4754C76.3384 11.8343 76.6898 11.3361 77.1378 10.9808C77.5935 10.6178 78.2423 10.4363 79.0842 10.4363C80.2196 10.4363 81.019 10.8495 81.4824 11.676C81.9535 12.5024 82.1891 13.5837 82.1891 14.9199L82.1891 23.47C82.1891 24.3583 82.0655 25.1615 81.8184 25.8798C81.5789 26.5904 81.2043 27.1543 80.6946 27.5713C80.1925 27.9807 79.5476 28.1854 78.7598 28.1854ZM77.0451 24.953C77.4854 24.953 77.7518 24.7367 77.8445 24.3042C77.9372 23.8717 77.9836 23.3387 77.9836 22.7054L77.9836 15.9163C77.9836 15.2752 77.9372 14.7423 77.8445 14.3175C77.7518 13.8849 77.4892 13.6687 77.0567 13.6687C76.6087 13.6687 76.3345 13.8888 76.2341 14.3291C76.1337 14.7616 76.0835 15.2907 76.0835 15.9163L76.0835 22.7054C76.0835 23.331 76.1337 23.864 76.2341 24.3042C76.3345 24.7367 76.6049 24.953 77.0451 24.953ZM88.7813 28.1854C85.3211 28.1854 83.591 26.3896 83.591 22.7981L83.591 15.8236C83.591 14.1862 84.0505 12.8809 84.9696 11.9077C85.8888 10.9268 87.1593 10.4363 88.7813 10.4363C90.411 10.4363 91.6854 10.9268 92.6045 11.9077C93.5236 12.8809 93.9832 14.1862 93.9832 15.8236L93.9832 22.7981C93.9832 26.3896 92.2492 28.1854 88.7813 28.1854ZM88.7813 24.9878C89.1289 24.9878 89.376 24.8642 89.5228 24.617C89.6772 24.3621 89.7545 24.0416 89.7545 23.6554L89.7545 15.1632C89.7545 14.1514 89.4301 13.6455 88.7813 13.6455C88.1325 13.6455 87.8081 14.1514 87.8081 15.1632L87.8081 23.6554C87.8081 24.0416 87.8815 24.3621 88.0282 24.617C88.1827 24.8642 88.4337 24.9878 88.7813 24.9878ZM95.5241 28L95.5241 10.6217H99.6717V12.8345C99.8262 12.1703 100.112 11.6064 100.529 11.143C100.954 10.6719 101.541 10.4363 102.29 10.4363C103.495 10.4363 104.368 10.807 104.908 11.5485C105.457 12.29 105.731 13.3057 105.731 14.5955L105.731 28H101.641L101.641 15.0242C101.641 14.6843 101.572 14.3715 101.433 14.0858C101.294 13.7923 101.054 13.6455 100.714 13.6455C100.398 13.6455 100.162 13.7575 100.008 13.9815C99.8609 14.1977 99.7683 14.4719 99.7296 14.8041C99.691 15.1285 99.6717 15.4528 99.6717 15.7772L99.6717 28H95.5241ZM117.745 28.1854C116.27 28.1854 115.08 27.7258 114.177 26.8067C113.281 25.8876 112.833 24.6016 112.833 22.9487L112.833 13.5412C112.833 11.564 113.223 10.0501 114.003 8.9997C114.791 7.94927 116.069 7.42406 117.838 7.42406C118.803 7.42406 119.661 7.60171 120.41 7.957C121.167 8.31229 121.761 8.84522 122.194 9.5558C122.627 10.2587 122.843 11.1469 122.843 12.2205L122.843 15.7425H118.788V12.7302C118.788 12.1201 118.711 11.7107 118.556 11.5022C118.402 11.2859 118.162 11.1778 117.838 11.1778C117.459 11.1778 117.205 11.3168 117.073 11.5949C116.942 11.8652 116.876 12.2282 116.876 12.6839L116.876 22.8908C116.876 23.4546 116.957 23.8524 117.12 24.0841C117.289 24.3158 117.529 24.4317 117.838 24.4317C118.185 24.4317 118.429 24.2888 118.568 24.003C118.714 23.7172 118.788 23.3465 118.788 22.8908L118.788 19.2182H122.889L122.889 23.0761C122.889 24.868 122.437 26.1695 121.534 26.9805C120.63 27.7837 119.367 28.1854 117.745 28.1854ZM124.187 28L124.187 7.60943H128.404L128.404 28H124.187ZM133.235 28.1854C132.27 28.1854 131.532 27.9614 131.022 27.5134C130.52 27.0654 130.176 26.4514 129.991 25.6713C129.806 24.8912 129.713 24.0068 129.713 23.0182C129.713 21.9601 129.817 21.095 130.026 20.4231C130.234 19.7434 130.59 19.1873 131.092 18.7547C131.601 18.3222 132.3 17.9553 133.189 17.6541L135.761 16.7736V14.9894C135.761 14.0549 135.456 13.5876 134.845 13.5876C134.289 13.5876 134.011 13.966 134.011 14.723V15.7657H129.98C129.972 15.7039 129.968 15.6266 129.968 15.5339C129.968 15.4335 129.968 15.3215 129.968 15.198C129.968 13.4679 130.373 12.2437 131.184 11.5253C132.003 10.7993 133.297 10.4363 135.066 10.4363C135.992 10.4363 136.823 10.6024 137.556 10.9345C138.29 11.2589 138.869 11.7416 139.294 12.3827C139.727 13.0237 139.943 13.8154 139.943 14.7577L139.943 28H135.819L135.819 25.9378C135.618 26.6638 135.286 27.2199 134.822 27.6061C134.359 27.9923 133.83 28.1854 133.235 28.1854ZM134.869 24.9646C135.208 24.9646 135.44 24.8217 135.564 24.5359C135.687 24.2501 135.749 23.9412 135.749 23.6091V18.7663C135.178 18.998 134.733 19.2915 134.417 19.6468C134.1 19.9944 133.942 20.508 133.942 21.1877V23.4237C133.942 24.451 134.251 24.9646 134.869 24.9646ZM141.542 28L141.542 10.6217H145.759V12.5565C145.96 11.8845 146.315 11.3593 146.825 10.9808C147.335 10.6024 147.976 10.4131 148.748 10.4131L148.748 13.8772C148.408 13.8772 148.003 13.9158 147.532 13.9931C147.06 14.0626 146.647 14.163 146.292 14.2943C145.937 14.4179 145.759 14.5569 145.759 14.7114L145.759 28H141.542ZM149.744 9.5558L149.744 6.10331H153.892L153.892 9.5558H149.744ZM149.744 28L149.744 10.6217H153.892L153.892 28H149.744ZM159.106 28.1854C157.986 28.1854 157.229 27.9498 156.835 27.4787C156.449 26.9998 156.256 26.2699 156.256 25.289V14.4565H155.085L155.085 11.2936H156.256L156.256 7.60943H160.287L160.287 11.2936H161.457L161.457 14.4565H160.287V24.3158C160.287 24.6016 160.334 24.8024 160.426 24.9182C160.519 25.0341 160.697 25.092 160.959 25.092C161.145 25.092 161.311 25.0766 161.457 25.0457V27.8726C161.365 27.9035 161.075 27.9614 160.589 28.0463C160.102 28.139 159.608 28.1854 159.106 28.1854ZM162.454 30.8964V28.2665H164.447C164.748 28.2665 164.898 28.1622 164.898 27.9537C164.898 27.8455 164.887 27.7335 164.864 27.6177L162.141 10.6217H166.115L167.273 23.4121L168.64 10.6217H172.638L169.417 28.9037C169.301 29.5602 169.077 30.0545 168.745 30.3866C168.42 30.7265 167.884 30.8964 167.134 30.8964H162.454Z" fill="white"/>
<rect x="0.5" y="3.5" width="29" height="29" rx="2.5" stroke="white"/>
<path d="M15.176 25.312C14.032 25.312 13.0007 25.052 12.082 24.532C11.1807 24.012 10.4613 23.258 9.924 22.27C9.38667 21.2647 9.118 20.06 9.118 18.656C9.118 17.252 9.41267 16.056 10.002 15.068C10.5913 14.0627 11.354 13.3 12.29 12.78C13.2433 12.2427 14.2747 11.974 15.384 11.974C16.1987 11.974 16.9093 12.1213 17.516 12.416C18.1227 12.6933 18.6513 13.0313 19.102 13.43L17.802 15.146C17.4553 14.8167 17.1 14.5653 16.736 14.392C16.372 14.2187 15.9647 14.132 15.514 14.132C14.786 14.132 14.1447 14.3227 13.59 14.704C13.0353 15.068 12.602 15.5967 12.29 16.29C11.978 16.966 11.822 17.7547 11.822 18.656C11.822 19.5573 11.9693 20.346 12.264 21.022C12.576 21.698 13.0007 22.2267 13.538 22.608C14.0927 22.972 14.7253 23.154 15.436 23.154C15.9733 23.154 16.476 23.0413 16.944 22.816C17.4293 22.5907 17.854 22.3133 18.218 21.984L19.31 23.726C18.7207 24.246 18.0707 24.6447 17.36 24.922C16.6493 25.182 15.9213 25.312 15.176 25.312Z" fill="white"/>
</svg>
