<svg width="21" height="22" viewBox="0 0 21 22" fill="none" xmlns="http://www.w3.org/2000/svg">
<g clip-path="url(#clip0_2073_31)">
<g clip-path="url(#clip1_2073_31)">
<g clip-path="url(#clip2_2073_31)">
<path fill-rule="evenodd" clip-rule="evenodd" d="M21 11C21 16.799 16.299 21.5 10.5 21.5C4.70101 21.5 0 16.799 0 11C0 5.20101 4.70101 0.5 10.5 0.5C16.299 0.5 21 5.20101 21 11ZM8.46196 15.3003L14.7146 12.1739C14.9687 12.0469 15.1746 11.841 15.3016 11.587C15.6257 10.9386 15.3629 10.1502 14.7146 9.82606L8.46196 6.69974C8.27972 6.60861 8.07877 6.56116 7.875 6.56116C7.15013 6.56116 6.5625 7.1488 6.5625 7.87366L6.5625 14.1264C6.5625 14.3301 6.60995 14.531 6.70106 14.7133C7.02523 15.3617 7.81363 15.6245 8.46196 15.3003Z" fill="white"/>
</g>
</g>
</g>
<defs>
<clipPath id="clip0_2073_31">
<rect width="21" height="21" fill="white" transform="translate(0 0.5)"/>
</clipPath>
<clipPath id="clip1_2073_31">
<rect width="21" height="21" fill="white" transform="translate(0 0.5)"/>
</clipPath>
<clipPath id="clip2_2073_31">
<rect width="21" height="21" fill="white" transform="translate(0 0.5)"/>
</clipPath>
</defs>
</svg>
